<?xml version="1.0" encoding="UTF-8"?><svg id="Layer_1" xmlns="http://www.w3.org/2000/svg" viewBox="0 0 1000 224.36"><defs><style>.cls-1{fill:#0097ce;}</style></defs><path class="cls-1" d="M43.4,104.85l4.06-11.41,6.5-18.23,4.62,13.79,5.34,15.85h-20.52Zm24.91-67.7h-29.18L0,140.87H30.6l5.11-14.43h35.51l4.85,14.43h30.6L68.31,37.14h0ZM617.89,104.85l4.06-11.41,6.5-18.23,4.62,13.79,5.34,15.85h-20.52Zm24.91-67.7h-29.18l-39.13,103.73h30.6l5.11-14.43h35.51l4.85,14.43h30.6l-38.35-103.73h0ZM205.78,76.71c-1.22,3.54-4.61,4.85-11.51,4.85h-18.38v-20.09h18.38c6.38,0,9.77,1.1,11.19,4.06,1.62,3.37,1.19,8.65,.32,11.18h0Zm7.45,24.27c13.22-4.82,20.96-16.03,20.96-30.75,0-20.41-13.48-33.09-35.17-33.09h-50.96v103.73h27.83v-37.54h7.28l24,37.54h32.99l-26.93-39.89h0Zm87.52,17.59c-17.66,0-28.18-11.08-28.18-29.66s10.52-29.63,28.18-29.63,28.15,11.33,28.15,29.63-10.52,29.66-28.15,29.66h0Zm0-82.88c-34.03,0-56.04,20.9-56.04,53.22,0,25.74,14.73,53.25,56.04,53.25s56.01-27.51,56.01-53.25c0-32.32-22-53.22-56.01-53.22h0Zm238.75,1.45v38.25h-31.87V37.15h-27.86v103.73h27.86v-41.13h31.87v41.13h27.86V37.15h-27.86Zm-171.86,51.79c0,28.67,17.13,53.23,53.63,53.23,18.64,0,35.18-4.5,44.51-9.22l-4.75-21.49c-13.31,5.94-22.83,8.19-35.38,8.19-19.4,0-30.62-13.92-30.62-30.72,0-20.06,11.22-30.72,25.86-30.72,17.12,0,19.59,12.49,18.07,22.53h25.67c7.42-26.21-5.7-45.05-44.31-45.05-29.86,0-52.69,17-52.69,53.23h0Zm166.89,126.2h-5.15v-43.67h5.15v43.67Zm14.01-35.59v35.59h-5.15v-43.67h6.32l23.98,35.78v-35.78h5.15v43.67h-6.32l-23.98-35.59Zm39.18,35.59v-43.67h14.14c15.12,0,23.27,9.65,23.27,21.83s-8.15,21.83-23.27,21.83h-14.14Zm14.14-4.37c11.14,0,17.99-7.04,17.99-17.47s-6.84-17.4-17.99-17.4h-8.99v34.87h8.99Zm35.98,4.37h-5.15v-43.67h5.15v43.67Zm44.84,0h-5.74l-4.3-11.86h-19.55l-4.43,11.86h-5.74l16.68-43.99h6.26l16.82,43.99Zm-28.03-16.23h16.36l-8.21-21.96-8.15,21.96Zm343.63-65.47c-.93-1.06-1.76-2.02-2.84-3.26,.77,.09,1.22,.14,2.21,.27-1.23-1.45-2.16-2.54-3.48-4.1,1.16,.63,1.86,1.01,2.55,1.39,.13-.11,.25-.21,.39-.32-.84-1.35-1.66-2.71-2.84-4.62,1.17,.53,1.77,.81,2.49,1.14v-1.64c.59,.19,1.13,.36,1.67,.54-4.47-6.48-1.67-12.79-.37-19.27,1.86-9.24,2.49-18.67,1.37-28.07-.7-5.92-1.51-11.89-3.1-17.61-2.1-7.57-6-14.35-12.03-19.55-7.49-6.48-15.02-12.92-22.9-18.89-4.6-3.49-10.04-5.48-15.91-6.58-3.92-.73-7.52-3.08-11.3-4.63-1.64-.68-3.32-1.3-5.03-1.71-9.15-2.18-18.27-4.53-27.5-6.27-3.38-.64-7.05,.11-10.57,.41-6.79,.59-13.58,1.22-20.34,2.04-2.45,.3-11.13,1.6-13.54,2.65-1.92,.25-3.84,.52-5.75,.81-4.69,.73-9.23,1.16-14.08,.18-4.41-.89-9.02,.24-13.24,2.37-1.75,.87-3.82,1.35-5.78,1.49-3.9,.29-7.83,.34-11.75,.25-4.21-.09-8.41-.16-12.53-1.52-1.32-.43-4.83-1.17-7.17-1.64-.84-.52-12.78-2.01-13.66-2.08-4.97-.38-10.07,.43-15,3.18-3.18,1.78-5.36,2.82-7.74,5.41-2.79,3.06-4.91,6.88-5.78,10.91-1.06,4.83-3.08,9.26-6.8,12.62-6.4,5.79-9.44,12.86-10.83,21.44-1.32,8.18-4.44,16.11-7.26,23.98-1.85,5.17-2.25,10.46-2.47,15.77-.24,5.57,.25,11.17,.35,16.76,.03,1.57-.17,3.14-.28,4.71-.16,2.2,2.2,20.61,2.69,27.3,.48,6.71,3.84,13.04,3.06,20.08,.35,.4,1.27,1.01,1.57,1.86,2.49,6.86,5.93,13.13,11.7,17.74,6.53,5.23,13.5,9.71,22.41,9.3,5.34-.25,10.08-2.25,12.61-7.04,1.85-3.5,3.47-7.47,1.91-11.76-.4-1.09-.64-2.24-1.08-3.35-1.06-2.9-3.19-8.6-4.37-11.45-.45-1.09-1.15-2.19-2.02-2.96-1.84-1.65-3.68-.84-4.31,1.56-.53,2.06-1.26,3.91-3.24,5.3-2.99,2.09-2.67,4.08,.54,5.84,2.88,1.58,5.63,8.01,4.22,10.8-.57,1.11-2.59,2.4-3.69,2.19-3.4-.64-6.81-1.49-9.2-4.6-1.58-2.05-4.1-3.39-5.64-5.46-1.66-2.25-3.04-4.87-3.87-7.55-.9-2.91-1.21-10.02-1.21-17.41,0-8.5,.4-17.4,.74-20.81,.31-3.24,.61-6.41,.86-9.58,.46-5.74,.8-11.51,1.47-17.27-1.92,5.76-6.89,18.38-14.09,19.53-1.87-5.8,4.77-11.57,6.65-22.03,4.3-1.5,8.31-.32,8.31-.32,0,0-.3,1.11-.87,2.83,.32,2.58,.13,5.41,1.12,7.71,1.01,2.36,3.2,4.21,5.22,6.71,1.38-4.05,2.31-7.47,3.72-10.68,1.69-3.87,4.91-6.44,8.76-7.89,4.26-1.6,8.77-2.57,13.04-4.16,4.09-1.53,7.99-3.56,12.03-5.24,1.02-.42,2.36-.71,3.36-.41,2.03,.61,3.96,1.6,5.88,2.55,3.74,1.83,4.54,4.91,3.15,8.68-2.73,7.39-3.47,15.12-3.8,22.84-.25,6.1,.77,12.24,.75,18.35-.03,8.12-.83,16.24-.71,24.36,.08,6,.14,11.89-1.45,17.77-.79,2.92-.71,6.08-1.01,9.14-.03,.28-.06,.61,.06,.84,2.48,4.83-.97,7.88-3.45,11.14-.61,.8-1.83,1.17-2.81,1.66-1,.49-2.24,.66-3.02,1.36-.84,.75-1.72,1.21-2.63,1.45-.3,.38-.71,.7-1.23,.91-4.81,1.95-4.34,6.27-3.73,10.51,.46,.17,.92,.35,1.38,.54,3.26,1.38,7.04,1.64,10.64,2.04,4.32,.47,8.7,.86,13.03,.75,1.33-.04,2.65-.09,3.98-.14,1.04-.63,1.95-1.6,2.8-2.34,1.33-1.16,2.83-2.15,4.04-3.43,1.44-1.51,2.68-3.45,4.2-5.01-.24-1.82-.73-3.77-.6-5.68,.22-3.31,.06-7.04,1.58-9.75,1.17-2.09,1.76-3.88,1.82-6.09,.05-1.68,0-3.42,.42-5.02,1.38-5.23,2.85-10.44,4.48-15.6,1.17-3.69,2.76-7.24,3.9-10.94,.81-2.62,1.17-5.38,1.89-8.83,.02,.04,.03,.08,.06,.13,.93-6.23,2.74-12.35,5.24-18.11,.91-2.12,1.96-4.19,3.07-6.21,.79-1.44,1.55-2.91,2.91-4.05,1.27-1.1,2.94-1.42,4.22-2.15,1.69-1.03,2.41-2.86,2.75-4.86,.88-7.37-.58-14.88-3.29-21.89,3.97,6.19,8.18,20.27,3.79,26.98-1.27,2.13-4.11,2.54-5.87,3.83-2.4,2.59-3.79,6.19-5.42,9.32-2.88,6.07-5.05,12.4-6.65,18.92,3.45,7.96,6.82,15.34,9.72,22.89,1.61,4.2,2.36,8.74,3.35,13.16,.41,1.8,.43,3.68,.59,5.53,.2,2.32,.54,4.65,.5,6.98-.04,2.88-3.55,6.78-5.89,6.39-3.28-.53-5.35,.9-7.14,3.3-.62,.82-1.35,1.56-2.11,2.42-1.26,2.25-.68,3.6,1.39,5.15,1.36,1.02,2.87,1.83,4.38,2.65,.3-.05,.59-.09,.89-.14,6.07-.98,11.87,1.55,17.9,1.01,3.3-.29,6.34-.9,9.46-2.16,.63-3.32,2.19-6.39,3.31-9.61,.08-.22,.18-.42,.29-.6,0-.31,.03-.65,.1-1.03,.29-1.55,.3-3.17,.46-4.75,.41-4.26,1.69-8.65,1.05-12.74-1.54-9.76-4.07-19.37-6.05-29.07-1.37-6.74-3.83-13.34-3.24-20.37,.52-6.33-.38-12.47-1.85-18.6-.33-1.37,.03-2.91,.11-4.36,0-.14,.36-.26,.72-.51,.14,.79,.25,1.41,.27,1.49,1.31-.17,2.51-.11,3.54-.49,4.28-1.59,7.2,.98,10.39,3.07,2.59,1.69,5.23,3.44,8.07,4.58,4.35,1.74,8.88,3.04,13.36,4.41,3.19,.98,6.4,2.31,9.66,2.51,3.29,.2,6.54-.06,9.79,.95,.99,.3,1.64,.61,1.99,1.24-.12-4.34,.25-8.71,.63-12.98,.19-2.25,.36-4.65,1.1-6.99,.75-2.2,1.77-4.37,2.87-6.43,2.22-4.11,5.42-7.5,8.51-10.95,1.56-1.68,3.2-3.32,5.07-4.65-1.58,1.65-2.92,3.48-4.28,5.3-2.58,3.64-5.35,7.28-7.24,11.34-.88,1.97-1.87,4.06-2.53,6.12-.96,3.06-1.01,6.66-1.59,9.9-.89,5.57-1.55,11.22-1.72,16.92,.31,3.84,.65,7.68,.98,11.51,.41,4.82,1.5,9.7,1.12,14.47-.76,9.33-3.15,18.38-7.46,26.81-1.07,2.1-1.7,4.48-2.95,6.46-2.83,4.48-12.93,7.68-11.49,8.38-1.08,.79-1.91,1.71-2.76,2.21,.15,.6,.07,1.28-.35,1.98-1.08,1.77-1.65,3.65-2.03,5.58,.02,0,.03,0,.04,.02,3.21,.86,6.37,2.01,9.63,2.58,2.41,.41,17.54,.44,18.34,.4,2.48-.14,4.95-.48,7.42-.73,1.82-1.32,3.54-2.79,5.11-4.46,.06-.06,.13-.12,.19-.18-.03-.4-.07-.79-.08-1.2-.03-1.34,.73-2.18,1.7-2.53,.25-.75,.51-1.49,.85-2.2,2.08-4.25,5.3-8.13,4.08-13.39-.14-.61,.03-1.31,.17-1.95,1.74-8.66,3.5-17.31,5.24-25.97,.35-1.75,.68-3.49,1-5.24,0-.02,0-.03,0-.03,.15-.85,.31-1.7,.47-2.55h0s0-.06,.02-.09c0,0,0,0,0,.02,1.73-6.03,7.14-10.92,10.29-16.22,1.4-2.23,2.72-4.5,3.88-6.87,2.35-4.69,4.1-9.79,6.8-14.59,2.66-4.8,6.3-8.99,10.5-12.36-1.68,2.1-3.32,4.22-4.78,6.44-6.07,8.84-7.97,19.94-14.53,28.65-3.61,5.41-9.48,9.75-11.76,15.85h0c1.63,3.67,3.08,7.27,3.65,11,1.3,8.41-.67,16.67-1.81,24.97-.52,3.74-1.98,7.03-4.86,8.6-3.07,1.69-5,3.61-5.6,7.22,.17,.35,.28,.76,.29,1.23,.03,1.86,.61,3.56,1.21,5.27,.76-.03,1.59-.08,2.56-.12-.77,.38-1.09,.53-1.4,.68,0,.22,0,.43,0,.65,.9-.18,2.21-.04,2.61-.58,1.16-1.57,2.45-1.17,3.99-1.02,7.12,.7,14.26,1.27,21.4,1.86,.65,.06,1.43,.19,1.95-.09,2.18-1.15,4.47-1.41,6.77-1.48h0c-.55-.73-.51-1.71-.14-2.53,.44-4.54,1.12-8.99,1.14-13.43,0-2.23-1.32-4.48-2.05-6.71-.8-2.4-1.63-4.8-1.86-7.37,.29,.23,.57,.46,1.5,1.19-3.55-8.95-3.12-18.24-2.26-27.67-.37,.49-.58,.23-.72-.14,.24,.05,.48,.1,.72,.14,.68-2.32,1.49-4.63,2.01-6.98,.76-3.44,1.4-6.91,1.93-10.39,.62-4.13,1.84-8.38,1.39-12.41-.62-5.75,1.72-10.87,2.05-16.3,.32-5.2,2.14-9.94,3.28-14.89,.37-1.6,.88-3.24,1.69-4.66,3.81-6.61,4.78-13.92,5.41-21.32,.04-.53,0-1.07,.36-1.61,0,3.88,.3,7.78-.06,11.63-.72,7.62-2.29,15.18-2.58,22.8-.29,7.51-.79,15.13,1.3,22.56,1.17,4.19,.04,7.9-2.55,11.31-1.71,2.25-3.43,4.6-2.27,7.68,.3,.8,.13,2.37,2.07,1.98,.36-.08,1.66,2.14,1.71,3.34,.15,3.16-.04,6.34-.3,9.49-.09,1.23-.73,2.42-1.13,3.66,5-.19,7.86-3.45,8.12-9.48,.11-2.42-.24-4.85-.3-7.28-.05-2.48,0-4.97,.5-7.5,.17,1.25,.35,2.5,.52,3.75,.25,0,.51,0,.76,.02,.14-1.39,.27-2.76,.41-4.23,.52,.09,.98,.19,.98,.19-.8-2.52-1.65-5.19-2.5-7.85,.33-.12,.66-.24,.99-.35,.53,1.08,1.07,2.16,1.6,3.24,.3-.1,.59-.19,.89-.29-.85-2.68-1.71-5.35-2.63-8.22,.41-.15,.96-.35,1.79-.64Zm-181.91-78.96c-.11,.92-.46,2.04-1.22,2.93-.76,.91-1.76,1.43-2.57,1.72-.84,.29-1.58,.43-2.24,.56-.68,.13-1.19,.22-1.79,.37-.56,.14-.99,.29-1.18,.4-.06,.03-.06,.06-.11,.07,0,.03-.04,.03-.05,.06-.03,.03-.07,.08-.1,.19-.08,.21-.13,.62-.08,1.11,.03,.48,.12,1.04,.23,1.6,.14,.63,.3,1.39,.39,2.15,.03,.41,.08,.79,.06,1.26v.35c-.03,.12-.04,.25-.06,.38l-.06,.39c-.03,.14-.08,.29-.13,.43-.05,.15-.09,.29-.16,.44-.08,.15-.16,.3-.25,.46-.16,.3-.44,.57-.68,.82-.53,.44-1.13,.73-1.59,.84-.95,.27-1.66,.3-2.33,.36l-.97,.07c-.39,.02-.79,.04-1.13,.03-1.45-.02-2.73-.16-3.97-.22-1.22-.08-2.42-.07-3.4,.18-.52,.1-.94,.29-1.31,.52-.08,.07-.18,.14-.27,.19-.08,.07-.14,.16-.23,.24-.14,.12-.36,.44-.56,.68-.8,1.05-1.6,2.13-2.59,3.12-.49,.49-1.01,.98-1.64,1.39s-1.38,.77-2.22,.83c-.21,0-.42,0-.62-.03l-.3-.07c-.09-.02-.23-.05-.24-.06-.19-.06-.36-.07-.57,0-.44,.15-.9,.6-1.29,1.07-.41,.49-.79,1.02-1.24,1.53-.22,.24-.46,.5-.77,.68-.15,.08-.32,.15-.5,.15s-.35-.07-.48-.16c.16,.06,.32,.08,.46,.05,.15-.04,.27-.14,.39-.23,.22-.21,.39-.47,.55-.75,.31-.56,.57-1.16,.91-1.74,.35-.57,.71-1.2,1.45-1.66,.37-.22,.86-.34,1.33-.28,.14,.03,.17,.02,.24,.02h.18c.12,0,.24-.03,.35-.03,.92-.22,1.76-1.11,2.47-2.09,.71-.99,1.38-2.08,2.03-3.18,.18-.29,.3-.53,.58-.91,.13-.17,.24-.35,.4-.51l.46-.46c.65-.56,1.41-.98,2.15-1.22,1.51-.54,2.96-.62,4.33-.69,1.36-.05,2.69,0,3.85-.08,.3,0,.56-.05,.82-.08l.97-.13c.62-.08,1.22-.19,1.51-.3,0,0,0,0,.03,0,.02-.1,.03-.57-.05-1.06-.09-.53-.23-1.06-.39-1.69-.18-.71-.35-1.44-.41-2.25-.08-.8-.08-1.72,.23-2.76,.15-.51,.42-1.06,.78-1.55,.18-.24,.4-.45,.61-.67,.22-.17,.45-.37,.68-.51,.92-.58,1.76-.8,2.46-.99,.67-.18,1.43-.33,2.03-.45,.62-.12,1.16-.24,1.55-.39,.41-.14,.58-.3,.67-.4,.08-.09,.18-.26,.23-.62,.06-.34,.03-.83-.03-1.34-.3-2.1-1.23-4.57-2.22-6.71l-.19-.41-.03-.29c-.08-.94-.12-1.74,0-2.74-.13-.2-.3-.44-.5-.69-.9-1.16-1.99-2.4-3-3.72-.5-.66-.99-1.35-1.44-2.08-.23-.36-.46-.73-.67-1.12l-.55-1.03c-.72-1.32-1.56-2.57-2.47-3.82-.9-1.24-1.91-2.47-2.89-3.78l-.36-.49-.18-.24-.16-.19c-.19-.27-.44-.53-.68-.79-.51-.52-1.1-1-1.7-1.46-2.5-1.77-5.32-3.28-8.33-4.32,1.59,.15,3.18,.51,4.72,.99,1.55,.46,3.07,1.07,4.54,1.85,.73,.4,1.45,.83,2.15,1.35,.34,.27,.69,.54,1,.88l.24,.24,.2,.21,.4,.43c1.07,1.12,2.22,2.24,3.33,3.45,1.12,1.19,2.16,2.52,3.11,3.91l.66,1.02c.19,.3,.4,.59,.62,.89,.44,.58,.91,1.16,1.41,1.73,1,1.16,2.07,2.24,3.2,3.51,.29,.33,.57,.68,.88,1.13,.16,.24,.32,.49,.5,.95,.08,.25,.19,.52,.18,1.07l-.04,.45c-.03,.41,0,.99,.04,1.51,.58,1.16,1.06,2.28,1.51,3.48,.49,1.31,.92,2.67,1.15,4.21,.1,.77,.18,1.6,.05,2.55Z"/></svg>